#!OML:ASF H:\Punching\Project 1\Capture day 1\Session 1\female.ASF
:FULLY-SPECIFIED
:DEGREES
1703
root 2.38935 14.5292 -0.875325 10.5242 11.418 -1.4524
lowerback -0.725735 2.14101 2.80657
upperback -7.30277 3.05159 0.831028
thorax -7.10699 1.38326 -0.863712
lowerneck -7.10002 -9.45584 -1.29443
upperneck 31.1766 -16.0748 8.43621
head 12.3388 -6.33725 1.33517
rclavicle -5.1684e-015 7.15625e-015
rhumerus 37.2339 -13.1834 -55.2077
rradius 49.0464
rwrist -28.9358
rhand -15.788 -30.5569
rfingers 7.12502
rthumb 10.4046 -60.2794
lclavicle -5.1684e-015 7.15625e-015
lhumerus 21.4255 -45.0325 81.8169
lradius 129.896
lwrist 15.6979
lhand -20.6206 10.0846
lfingers 7.12502
lthumb 5.74068 39.9869
rfemur 22.2129 -25.6493 4.22955
rtibia 3.49861e-014
rfoot -17.4701 -15.0172
rtoes -0.867468
lfemur -49.325 -2.22198 -9.11289
ltibia 44.2019
lfoot -3.98658 3.01971
ltoes -5.56459
1704
root 2.38782 14.5158 -0.870529 10.2299 11.8782 -1.58011
lowerback -0.66054 2.47171 3.07506
upperback -7.30543 3.50965 0.834132
thorax -7.11912 1.59442 -1.03551
lowerneck -6.95344 -9.83753 -1.65738
upperneck 31.3473 -16.6154 8.55346
head 12.4654 -6.59281 1.36693
rclavicle -4.39811e-014 -1.70955e-014
rhumerus 38.375 -15.0194 -55.7579
rradius 43.7319
rwrist -23.8414
rhand -15.0529 -29.2893
rfingers 7.12502
rthumb 11.1137 -58.975
lclavicle -4.39811e-014 -1.70955e-014
lhumerus 21.587 -45.2361 81.5146
lradius 129.649
lwrist 15.507
lhand -20.5241 9.85808
lfingers 7.12502
lthumb 5.83378 39.7578
rfemur 22.7684 -26.0049 4.17986
rtibia 5.725e-014
rfoot -17.5541 -14.9501
rtoes -0.955946
lfemur -49.303 -2.39308 -9.05549
ltibia 44.4468
lfoot -4.07219 2.7897
ltoes -5.63564
1705
root 2.38567 14.5078 -0.865238 10.0011 12.1184 -1.65612
lowerback -0.607077 2.77416 3.2218
upperback -7.30648 3.92504 0.840914
thorax -7.12801 1.79191 -1.13319
lowerneck -6.88819 -10.1279 -1.95523
upperneck 31.5235 -17.0416 8.66888
head 12.6003 -6.78732 1.39801
rclavicle -5.59082e-015 1.03368e-014
rhumerus 39.2 -17.0826 -56.8585
rradius 39.9786
rwrist -18.2216
rhand -13.8237 -27.5644
rfingers 7.12502
rthumb 12.2991 -57.1827
lclavicle -5.59082e-015 1.03368e-014
lhumerus 21.7048 -45.376 81.2642
lradius 129.479
lwrist 15.2505
lhand -20.429 9.67258
lfingers 7.12502
lthumb 5.92567 39.5697
rfemur 23.15 -26.1871 4.12437
rtibia -1.59028e-014
rfoot -17.58 -14.9314
rtoes -1.14065
lfemur -49.2086 -2.45056 -9.03124
ltibia 44.6021
lfoot -4.16254 2.64892
ltoes -5.70718
1706
root 2.38262 14.5057 -0.859537 9.84936 12.1498 -1.67176
lowerback -0.576817 3.04815 3.24917
upperback -7.30769 4.29555 0.830189
thorax -7.13 1.97387 -1.17956
lowerneck -6.89202 -10.3315 -2.14605
upperneck 31.6873 -17.363 8.7824
head 12.7286 -6.92209 1.42197
rclavicle -3.0265e-014 4.37326e-015
rhumerus 39.5545 -19.0668 -58.1526
rradius 38.0107
rwrist -12.8177
rhand -12.4459 -25.6901
rfingers 7.12502
rthumb 13.6273 -55.224
lclavicle -3.0265e-014 4.37326e-015
lhumerus 21.7876 -45.471 81.0596
lradius 129.375
lwrist 14.9095
lhand -20.3116 9.54511
lfingers 7.12502
lthumb 6.03902 39.439
rfemur 23.3497 -26.2105 4.06366
rtibia 3.18055e-014
rfoot -17.5426 -14.9602
rtoes -1.39954
lfemur -49.049 -2.41548 -9.04003
ltibia 44.6551
lfoot -4.24731 2.60615
ltoes -5.78563
1707
root 2.37849 14.5093 -0.853637 9.77419 11.9925 -1.63547
lowerback -0.579532 3.27871 3.16734
upperback -7.31266 4.60108 0.802556
thorax -7.12544 2.12977 -1.17814
lowerneck -6.92894 -10.4376 -2.21205
upperneck 31.8283 -17.5611 8.88802
head 12.8328 -6.99025 1.43965
rclavicle -6.43565e-014 -2.82274e-014
rhumerus 39.2989 -20.5494 -59.2054
rradius 37.8466
rwrist -8.52581
rhand -11.1111 -24.0614
rfingers 7.12502
rthumb 14.9135 -53.5045
lclavicle -6.43565e-014 -2.82274e-014
lhumerus 21.8122 -45.517 80.9159
lradius 129.319
lwrist 14.4742
lhand -20.1628 9.4716
lfingers 7.12502
lthumb 6.18265 39.3614
rfemur 23.3719 -26.0929 4.00964
rtibia -2.22639e-014
rfoot -17.4419 -15.0329
rtoes -1.70698
lfemur -48.8356 -2.31245 -9.06546
ltibia 44.6056
lfoot -4.31857 2.66733
ltoes -5.88535
1708
root 2.37334 14.518 -0.84774 9.76711 11.6724 -1.56264
lowerback -0.618837 3.45257 2.99367
upperback -7.31845 4.82473 0.76594
thorax -7.11037 2.25055 -1.12902
lowerneck -6.9929 -10.4423 -2.15168
upperneck 31.9509 -17.6267 8.9741
head 12.9098 -6.98926 1.44887
rclavicle 3.49364e-014 -2.38542e-015
rhumerus 38.3661 -21.2055 -59.7
rradius 39.3329
rwrist -6.13371
rhand -9.97373 -23.0003
rfingers 7.12502
rthumb 16.0089 -52.3588
lclavicle 3.49364e-014 -2.38542e-015
lhumerus 21.7765 -45.51 80.8455
lradius 129.306
lwrist 13.9622
lhand -19.9835 9.42854
lfingers 7.12502
lthumb 6.35578 39.3132
rfemur 23.234 -25.8546 3.97424
rtibia -4.45278e-014
rfoot -17.2822 -15.1449
rtoes -2.05872
lfemur -48.5801 -2.17038 -9.08679
ltibia 44.4647
lfoot -4.37392 2.84209
ltoes -6.0141
1709
root 2.36735 14.5308 -0.842195 9.81315 11.213 -1.47344
lowerback -0.690212 3.5632 2.75734
upperback -7.32625 4.9597 0.726631
thorax -7.0877 2.33116 -1.0417
lowerneck -7.06149 -10.3437 -1.96251
upperneck 32.055 -17.5504 9.02305
head 12.951 -6.91802 1.44576
rclavicle -3.9906e-014 -3.18055e-015
rhumerus 36.8568 -20.9865 -59.6716
rradius 42.1953
rwrist -5.97862
rhand -9.17521 -22.5984
rfingers 7.12502
rthumb 16.7778 -51.8935
lclavicle -3.9906e-014 -3.18055e-015
lhumerus 21.6678 -45.4604 80.8621
lradius 129.335
lwrist 13.4204
lhand -19.7954 9.40829
lfingers 7.12502
lthumb 6.53732 39.2874
rfemur 22.9589 -25.5104 3.96933
rtibia 5.08889e-014
rfoot -17.073 -15.2898
rtoes -2.44226
lfemur -48.2926 -2.01373 -9.08045
ltibia 44.2524
lfoot -4.41438 3.13384
ltoes -6.16578
1710
root 2.36075 14.5467 -0.83722 9.89028 10.6316 -1.38917
lowerback -0.784544 3.6093 2.48847
upperback -7.3283 5.00626 0.694451
thorax -7.05245 2.37028 -0.922913
lowerneck -7.13978 -10.1471 -1.65935
upperneck 32.1528 -17.3348 9.0204
head 12.963 -6.78018 1.42611
rclavicle -1.93815e-015 1.59028e-014
rhumerus 34.9819 -20.0264 -59.3536
rradius 46.1849
rwrist -8.05044
rhand -8.96157 -22.8889
rfingers 7.12502
rthumb 16.9834 -52.1664
lclavicle -1.93815e-015 1.59028e-014
lhumerus 21.4919 -45.3775 80.9698
lradius 129.411
lwrist 12.9126
lhand -19.6217 9.42471
lfingers 7.12502
lthumb 6.70503 39.2986
rfemur 22.5785 -25.0674 4.00366
rtibia -5.08889e-014
rfoot -16.8296 -15.461
rtoes -2.85228
lfemur -47.9742 -1.86059 -9.02369
ltibia 43.9922
lfoot -4.44433 3.54289
ltoes -6.32818
